<mxfile host="app.diagrams.net" agent="Mozilla/5.0 (Windows NT 10.0; Win64; x64; rv:132.0) Gecko/20100101 Firefox/132.0" version="24.8.6" pages="2">
  <diagram name="Page-1" id="Bt3FV_wdgYteB4T8x5Fn">
    <mxGraphModel dx="863" dy="430" grid="1" gridSize="10" guides="1" tooltips="1" connect="1" arrows="1" fold="1" page="1" pageScale="1" pageWidth="850" pageHeight="1100" math="0" shadow="0">
      <root>
        <mxCell id="0" />
        <mxCell id="1" parent="0" />
        <mxCell id="nBdhhwAt10GolD-cnCdz-1" value="" style="ellipse;fillColor=strokeColor;hachureGap=4;fontFamily=Times New Roman;fontSize=16;swimlaneLine=1;shadow=0;" vertex="1" parent="1">
          <mxGeometry x="468" y="20" width="14" height="14" as="geometry" />
        </mxCell>
        <mxCell id="nBdhhwAt10GolD-cnCdz-2" value="SessionInit" style="swimlane;fontStyle=1;align=center;verticalAlign=middle;startSize=25;container=0;collapsible=0;rounded=1;arcSize=14;dropTarget=0;verticalAlign=top;hachureGap=4;fontFamily=Times New Roman;fontSize=16;swimlaneLine=1;shadow=0;" vertex="1" parent="1">
          <mxGeometry x="328" y="107" width="293" height="723" as="geometry" />
        </mxCell>
        <mxCell id="nBdhhwAt10GolD-cnCdz-3" value="" style="ellipse;fillColor=strokeColor;hachureGap=4;fontFamily=Times New Roman;swimlaneLine=1;shadow=0;fontSize=16;" vertex="1" parent="nBdhhwAt10GolD-cnCdz-2">
          <mxGeometry x="147" y="46" width="14" height="14" as="geometry" />
        </mxCell>
        <mxCell id="nBdhhwAt10GolD-cnCdz-4" value="TransactionBoundary" style="rounded=1;arcSize=40;strokeWidth=2;hachureGap=4;fontFamily=Times New Roman;swimlaneLine=1;shadow=0;fontSize=16;" vertex="1" parent="nBdhhwAt10GolD-cnCdz-2">
          <mxGeometry x="72" y="480" width="165" height="35" as="geometry" />
        </mxCell>
        <mxCell id="nBdhhwAt10GolD-cnCdz-5" value="Ready" style="rounded=1;arcSize=40;strokeWidth=2;hachureGap=4;fontFamily=Times New Roman;swimlaneLine=1;shadow=0;fontSize=16;" vertex="1" parent="nBdhhwAt10GolD-cnCdz-2">
          <mxGeometry x="125" y="589" width="59" height="35" as="geometry" />
        </mxCell>
        <mxCell id="nBdhhwAt10GolD-cnCdz-6" value="" style="ellipse;shape=endState;fillColor=strokeColor;hachureGap=4;fontFamily=Times New Roman;swimlaneLine=1;shadow=0;fontSize=16;" vertex="1" parent="nBdhhwAt10GolD-cnCdz-2">
          <mxGeometry x="147" y="699" width="14" height="14" as="geometry" />
        </mxCell>
        <mxCell id="nBdhhwAt10GolD-cnCdz-7" value="ResourceAcquisition" style="swimlane;fontStyle=1;align=center;verticalAlign=middle;startSize=25;container=0;collapsible=0;rounded=1;arcSize=14;dropTarget=0;verticalAlign=top;hachureGap=4;fontFamily=Times New Roman;swimlaneLine=1;shadow=0;fontSize=16;" vertex="1" parent="nBdhhwAt10GolD-cnCdz-2">
          <mxGeometry x="43" y="135" width="223" height="270" as="geometry" />
        </mxCell>
        <mxCell id="nBdhhwAt10GolD-cnCdz-8" value="Initialize Datastore" style="rounded=1;arcSize=40;strokeWidth=2;hachureGap=4;fontFamily=Times New Roman;swimlaneLine=1;shadow=0;fontSize=16;" vertex="1" parent="nBdhhwAt10GolD-cnCdz-7">
          <mxGeometry x="43" y="58" width="153" height="34" as="geometry" />
        </mxCell>
        <mxCell id="nBdhhwAt10GolD-cnCdz-9" value="Create DAOs" style="rounded=1;arcSize=40;strokeWidth=2;hachureGap=4;fontFamily=Times New Roman;swimlaneLine=1;shadow=0;fontSize=16;" vertex="1" parent="nBdhhwAt10GolD-cnCdz-7">
          <mxGeometry x="67" y="192" width="105" height="34" as="geometry" />
        </mxCell>
        <mxCell id="nBdhhwAt10GolD-cnCdz-10" value="" style="curved=1;startArrow=none;;exitX=0.5;exitY=1.01;entryX=0.5;entryY=0.01;rounded=0;hachureGap=4;fontFamily=Times New Roman;swimlaneLine=1;shadow=0;fontSize=16;" edge="1" parent="nBdhhwAt10GolD-cnCdz-7" source="nBdhhwAt10GolD-cnCdz-8" target="nBdhhwAt10GolD-cnCdz-9">
          <mxGeometry relative="1" as="geometry">
            <Array as="points" />
          </mxGeometry>
        </mxCell>
        <mxCell id="nBdhhwAt10GolD-cnCdz-11" value="" style="curved=1;startArrow=none;;exitX=0.5;exitY=0.97;entryX=0.5;entryY=0;rounded=0;hachureGap=4;fontFamily=Times New Roman;swimlaneLine=1;shadow=0;fontSize=16;" edge="1" parent="nBdhhwAt10GolD-cnCdz-2" source="nBdhhwAt10GolD-cnCdz-4" target="nBdhhwAt10GolD-cnCdz-5">
          <mxGeometry relative="1" as="geometry">
            <Array as="points" />
          </mxGeometry>
        </mxCell>
        <mxCell id="nBdhhwAt10GolD-cnCdz-12" value="" style="curved=1;startArrow=none;;exitX=0.5;exitY=0.99;entryX=0.53;entryY=-0.03;rounded=0;hachureGap=4;fontFamily=Times New Roman;swimlaneLine=1;shadow=0;fontSize=16;" edge="1" parent="nBdhhwAt10GolD-cnCdz-2" source="nBdhhwAt10GolD-cnCdz-5" target="nBdhhwAt10GolD-cnCdz-6">
          <mxGeometry relative="1" as="geometry">
            <Array as="points" />
          </mxGeometry>
        </mxCell>
        <mxCell id="nBdhhwAt10GolD-cnCdz-13" value="" style="curved=1;startArrow=none;;exitX=0.53;exitY=0.96;entryX=0.5;entryY=0;rounded=0;hachureGap=4;fontFamily=Times New Roman;swimlaneLine=1;shadow=0;fontSize=16;" edge="1" parent="nBdhhwAt10GolD-cnCdz-2" source="nBdhhwAt10GolD-cnCdz-3" target="nBdhhwAt10GolD-cnCdz-7">
          <mxGeometry relative="1" as="geometry">
            <Array as="points" />
          </mxGeometry>
        </mxCell>
        <mxCell id="nBdhhwAt10GolD-cnCdz-14" value="" style="curved=1;startArrow=none;;exitX=0.5;exitY=1;entryX=0.5;entryY=-0.01;rounded=0;hachureGap=4;fontFamily=Times New Roman;swimlaneLine=1;shadow=0;fontSize=16;" edge="1" parent="nBdhhwAt10GolD-cnCdz-2" source="nBdhhwAt10GolD-cnCdz-7" target="nBdhhwAt10GolD-cnCdz-4">
          <mxGeometry relative="1" as="geometry">
            <Array as="points" />
          </mxGeometry>
        </mxCell>
        <mxCell id="nBdhhwAt10GolD-cnCdz-15" value="Transaction Processing" style="swimlane;fontStyle=1;align=center;verticalAlign=middle;startSize=25;container=0;collapsible=0;rounded=1;arcSize=14;dropTarget=0;verticalAlign=top;hachureGap=4;fontFamily=Times New Roman;fontSize=16;swimlaneLine=1;shadow=0;" vertex="1" parent="1">
          <mxGeometry x="20" y="922" width="909" height="1635" as="geometry" />
        </mxCell>
        <mxCell id="nBdhhwAt10GolD-cnCdz-16" value="Booking Service" style="swimlane;fontStyle=1;align=center;verticalAlign=middle;startSize=25;container=0;collapsible=0;rounded=1;arcSize=14;dropTarget=0;verticalAlign=top;hachureGap=4;fontFamily=Times New Roman;swimlaneLine=1;shadow=0;fontSize=16;" vertex="1" parent="nBdhhwAt10GolD-cnCdz-15">
          <mxGeometry x="243" y="523" width="438" height="1081" as="geometry" />
        </mxCell>
        <mxCell id="nBdhhwAt10GolD-cnCdz-17" value="" style="ellipse;fillColor=strokeColor;hachureGap=4;fontFamily=Times New Roman;swimlaneLine=1;shadow=0;fontSize=16;" vertex="1" parent="nBdhhwAt10GolD-cnCdz-16">
          <mxGeometry x="245" y="58" width="14" height="14" as="geometry" />
        </mxCell>
        <mxCell id="nBdhhwAt10GolD-cnCdz-18" value="CheckAvailability" style="rounded=1;arcSize=40;strokeWidth=2;hachureGap=4;fontFamily=Times New Roman;swimlaneLine=1;shadow=0;fontSize=16;" vertex="1" parent="nBdhhwAt10GolD-cnCdz-16">
          <mxGeometry x="182" y="172" width="139" height="35" as="geometry" />
        </mxCell>
        <mxCell id="nBdhhwAt10GolD-cnCdz-19" value="AtomicBooking" style="rounded=1;arcSize=40;strokeWidth=2;hachureGap=4;fontFamily=Times New Roman;swimlaneLine=1;shadow=0;fontSize=16;" vertex="1" parent="nBdhhwAt10GolD-cnCdz-16">
          <mxGeometry x="126" y="329" width="122" height="35" as="geometry" />
        </mxCell>
        <mxCell id="nBdhhwAt10GolD-cnCdz-20" value="Failed" style="rounded=1;arcSize=40;strokeWidth=2;hachureGap=4;fontFamily=Times New Roman;swimlaneLine=1;shadow=0;fontSize=16;" vertex="1" parent="nBdhhwAt10GolD-cnCdz-16">
          <mxGeometry x="298" y="755" width="60" height="34" as="geometry" />
        </mxCell>
        <mxCell id="nBdhhwAt10GolD-cnCdz-21" value="CommitPhase" style="rounded=1;arcSize=40;strokeWidth=2;hachureGap=4;fontFamily=Times New Roman;swimlaneLine=1;shadow=0;fontSize=16;" vertex="1" parent="nBdhhwAt10GolD-cnCdz-16">
          <mxGeometry x="130" y="464" width="112" height="34" as="geometry" />
        </mxCell>
        <mxCell id="nBdhhwAt10GolD-cnCdz-22" value="Success" style="rounded=1;arcSize=40;strokeWidth=2;hachureGap=4;fontFamily=Times New Roman;swimlaneLine=1;shadow=0;fontSize=16;" vertex="1" parent="nBdhhwAt10GolD-cnCdz-16">
          <mxGeometry x="75" y="755" width="70" height="34" as="geometry" />
        </mxCell>
        <mxCell id="nBdhhwAt10GolD-cnCdz-23" value="Rollback" style="rounded=1;arcSize=40;strokeWidth=2;hachureGap=4;fontFamily=Times New Roman;swimlaneLine=1;shadow=0;fontSize=16;" vertex="1" parent="nBdhhwAt10GolD-cnCdz-16">
          <mxGeometry x="225" y="620" width="76" height="34" as="geometry" />
        </mxCell>
        <mxCell id="nBdhhwAt10GolD-cnCdz-24" value="UpdateCounters" style="rounded=1;arcSize=40;strokeWidth=2;hachureGap=4;fontFamily=Times New Roman;swimlaneLine=1;shadow=0;fontSize=16;" vertex="1" parent="nBdhhwAt10GolD-cnCdz-16">
          <mxGeometry x="186" y="889" width="131" height="35" as="geometry" />
        </mxCell>
        <mxCell id="nBdhhwAt10GolD-cnCdz-25" value="" style="ellipse;shape=endState;fillColor=strokeColor;hachureGap=4;fontFamily=Times New Roman;swimlaneLine=1;shadow=0;fontSize=16;" vertex="1" parent="nBdhhwAt10GolD-cnCdz-16">
          <mxGeometry x="245" y="1024" width="14" height="14" as="geometry" />
        </mxCell>
        <mxCell id="nBdhhwAt10GolD-cnCdz-26" value="" style="curved=1;startArrow=none;;exitX=0.47;exitY=1;entryX=0.5;entryY=0;rounded=0;hachureGap=4;fontFamily=Times New Roman;swimlaneLine=1;shadow=0;fontSize=16;" edge="1" parent="nBdhhwAt10GolD-cnCdz-16" source="nBdhhwAt10GolD-cnCdz-17" target="nBdhhwAt10GolD-cnCdz-18">
          <mxGeometry relative="1" as="geometry">
            <Array as="points" />
          </mxGeometry>
        </mxCell>
        <mxCell id="nBdhhwAt10GolD-cnCdz-27" value="Tickets Available" style="curved=1;startArrow=none;;exitX=0.4;exitY=0.99;entryX=0.5;entryY=0;rounded=0;hachureGap=4;fontFamily=Times New Roman;swimlaneLine=1;shadow=0;fontSize=16;" edge="1" parent="nBdhhwAt10GolD-cnCdz-16" source="nBdhhwAt10GolD-cnCdz-18" target="nBdhhwAt10GolD-cnCdz-19">
          <mxGeometry relative="1" as="geometry">
            <Array as="points">
              <mxPoint x="186" y="268" />
            </Array>
          </mxGeometry>
        </mxCell>
        <mxCell id="nBdhhwAt10GolD-cnCdz-28" value="No Tickets" style="curved=1;startArrow=none;;exitX=0.68;exitY=0.99;entryX=0.66;entryY=-0.01;rounded=0;hachureGap=4;fontFamily=Times New Roman;swimlaneLine=1;shadow=0;fontSize=16;" edge="1" parent="nBdhhwAt10GolD-cnCdz-16" source="nBdhhwAt10GolD-cnCdz-18" target="nBdhhwAt10GolD-cnCdz-20">
          <mxGeometry relative="1" as="geometry">
            <Array as="points">
              <mxPoint x="365" y="268" />
              <mxPoint x="365" y="705" />
            </Array>
          </mxGeometry>
        </mxCell>
        <mxCell id="nBdhhwAt10GolD-cnCdz-29" value="" style="curved=1;startArrow=none;;exitX=0.5;exitY=0.99;entryX=0.5;entryY=-0.01;rounded=0;hachureGap=4;fontFamily=Times New Roman;swimlaneLine=1;shadow=0;fontSize=16;" edge="1" parent="nBdhhwAt10GolD-cnCdz-16" source="nBdhhwAt10GolD-cnCdz-19" target="nBdhhwAt10GolD-cnCdz-21">
          <mxGeometry relative="1" as="geometry">
            <Array as="points" />
          </mxGeometry>
        </mxCell>
        <mxCell id="nBdhhwAt10GolD-cnCdz-30" value="Transaction Complete" style="curved=1;startArrow=none;;exitX=0.35;exitY=1;entryX=0.5;entryY=-0.01;rounded=0;hachureGap=4;fontFamily=Times New Roman;swimlaneLine=1;shadow=0;fontSize=16;" edge="1" parent="nBdhhwAt10GolD-cnCdz-16" source="nBdhhwAt10GolD-cnCdz-21" target="nBdhhwAt10GolD-cnCdz-22">
          <mxGeometry relative="1" as="geometry">
            <Array as="points">
              <mxPoint x="110" y="559" />
            </Array>
          </mxGeometry>
        </mxCell>
        <mxCell id="nBdhhwAt10GolD-cnCdz-31" value="Error" style="curved=1;startArrow=none;;exitX=0.65;exitY=1;entryX=0.5;entryY=0.01;rounded=0;hachureGap=4;fontFamily=Times New Roman;swimlaneLine=1;shadow=0;fontSize=16;" edge="1" parent="nBdhhwAt10GolD-cnCdz-16" source="nBdhhwAt10GolD-cnCdz-21" target="nBdhhwAt10GolD-cnCdz-23">
          <mxGeometry relative="1" as="geometry">
            <Array as="points">
              <mxPoint x="263" y="559" />
            </Array>
          </mxGeometry>
        </mxCell>
        <mxCell id="nBdhhwAt10GolD-cnCdz-32" value="" style="curved=1;startArrow=none;;exitX=0.5;exitY=1.02;entryX=0.22;entryY=-0.01;rounded=0;hachureGap=4;fontFamily=Times New Roman;swimlaneLine=1;shadow=0;fontSize=16;" edge="1" parent="nBdhhwAt10GolD-cnCdz-16" source="nBdhhwAt10GolD-cnCdz-23" target="nBdhhwAt10GolD-cnCdz-20">
          <mxGeometry relative="1" as="geometry">
            <Array as="points">
              <mxPoint x="263" y="705" />
            </Array>
          </mxGeometry>
        </mxCell>
        <mxCell id="nBdhhwAt10GolD-cnCdz-33" value="" style="curved=1;startArrow=none;;exitX=0.5;exitY=1;entryX=0.22;entryY=0;rounded=0;hachureGap=4;fontFamily=Times New Roman;swimlaneLine=1;shadow=0;fontSize=16;" edge="1" parent="nBdhhwAt10GolD-cnCdz-16" source="nBdhhwAt10GolD-cnCdz-22" target="nBdhhwAt10GolD-cnCdz-24">
          <mxGeometry relative="1" as="geometry">
            <Array as="points">
              <mxPoint x="110" y="839" />
            </Array>
          </mxGeometry>
        </mxCell>
        <mxCell id="nBdhhwAt10GolD-cnCdz-34" value="" style="curved=1;startArrow=none;;exitX=0.5;exitY=1;entryX=0.65;entryY=0;rounded=0;hachureGap=4;fontFamily=Times New Roman;swimlaneLine=1;shadow=0;fontSize=16;" edge="1" parent="nBdhhwAt10GolD-cnCdz-16" source="nBdhhwAt10GolD-cnCdz-20" target="nBdhhwAt10GolD-cnCdz-24">
          <mxGeometry relative="1" as="geometry">
            <Array as="points">
              <mxPoint x="328" y="839" />
            </Array>
          </mxGeometry>
        </mxCell>
        <mxCell id="nBdhhwAt10GolD-cnCdz-35" value="" style="curved=1;startArrow=none;;exitX=0.5;exitY=0.99;entryX=0.47;entryY=-0.02;rounded=0;hachureGap=4;fontFamily=Times New Roman;swimlaneLine=1;shadow=0;fontSize=16;" edge="1" parent="nBdhhwAt10GolD-cnCdz-16" source="nBdhhwAt10GolD-cnCdz-24" target="nBdhhwAt10GolD-cnCdz-25">
          <mxGeometry relative="1" as="geometry">
            <Array as="points" />
          </mxGeometry>
        </mxCell>
        <mxCell id="nBdhhwAt10GolD-cnCdz-36" value="" style="ellipse;fillColor=strokeColor;hachureGap=4;fontFamily=Times New Roman;swimlaneLine=1;shadow=0;fontSize=16;" vertex="1" parent="nBdhhwAt10GolD-cnCdz-15">
          <mxGeometry x="455" y="46" width="14" height="14" as="geometry" />
        </mxCell>
        <mxCell id="nBdhhwAt10GolD-cnCdz-37" value="" style="shape=line;strokeWidth=9;hachureGap=4;fontFamily=Times New Roman;swimlaneLine=1;shadow=0;fontSize=16;" vertex="1" parent="nBdhhwAt10GolD-cnCdz-15">
          <mxGeometry x="425" y="135" width="74" height="14" as="geometry" />
        </mxCell>
        <mxCell id="nBdhhwAt10GolD-cnCdz-38" value="AtomicCounters" style="swimlane;fontStyle=1;align=center;verticalAlign=middle;startSize=25;container=0;collapsible=0;rounded=1;arcSize=14;dropTarget=0;verticalAlign=top;hachureGap=4;fontFamily=Times New Roman;swimlaneLine=1;shadow=0;fontSize=16;" vertex="1" parent="nBdhhwAt10GolD-cnCdz-15">
          <mxGeometry x="58" y="224" width="379" height="136" as="geometry" />
        </mxCell>
        <mxCell id="nBdhhwAt10GolD-cnCdz-39" value="Success Counter" style="rounded=1;arcSize=40;strokeWidth=2;hachureGap=4;fontFamily=Times New Roman;swimlaneLine=1;shadow=0;fontSize=16;" vertex="1" parent="nBdhhwAt10GolD-cnCdz-38">
          <mxGeometry x="43" y="58" width="132" height="34" as="geometry" />
        </mxCell>
        <mxCell id="nBdhhwAt10GolD-cnCdz-40" value="Failure Counter" style="rounded=1;arcSize=40;strokeWidth=2;hachureGap=4;fontFamily=Times New Roman;swimlaneLine=1;shadow=0;fontSize=16;" vertex="1" parent="nBdhhwAt10GolD-cnCdz-38">
          <mxGeometry x="225" y="58" width="128" height="34" as="geometry" />
        </mxCell>
        <mxCell id="nBdhhwAt10GolD-cnCdz-41" value="SessionScope" style="swimlane;fontStyle=1;align=center;verticalAlign=middle;startSize=25;container=0;collapsible=0;rounded=1;arcSize=14;dropTarget=0;verticalAlign=top;hachureGap=4;fontFamily=Times New Roman;swimlaneLine=1;shadow=0;fontSize=16;" vertex="1" parent="nBdhhwAt10GolD-cnCdz-15">
          <mxGeometry x="487" y="224" width="381" height="136" as="geometry" />
        </mxCell>
        <mxCell id="nBdhhwAt10GolD-cnCdz-42" value="Try-with-resources" style="rounded=1;arcSize=40;strokeWidth=2;hachureGap=4;fontFamily=Times New Roman;swimlaneLine=1;shadow=0;fontSize=16;" vertex="1" parent="nBdhhwAt10GolD-cnCdz-41">
          <mxGeometry x="43" y="58" width="149" height="35" as="geometry" />
        </mxCell>
        <mxCell id="nBdhhwAt10GolD-cnCdz-43" value="Auto Cleanup" style="rounded=1;arcSize=40;strokeWidth=2;hachureGap=4;fontFamily=Times New Roman;swimlaneLine=1;shadow=0;fontSize=16;" vertex="1" parent="nBdhhwAt10GolD-cnCdz-41">
          <mxGeometry x="242" y="58" width="112" height="35" as="geometry" />
        </mxCell>
        <mxCell id="nBdhhwAt10GolD-cnCdz-44" value="" style="shape=line;strokeWidth=9;hachureGap=4;fontFamily=Times New Roman;swimlaneLine=1;shadow=0;fontSize=16;" vertex="1" parent="nBdhhwAt10GolD-cnCdz-15">
          <mxGeometry x="425" y="434" width="74" height="14" as="geometry" />
        </mxCell>
        <mxCell id="nBdhhwAt10GolD-cnCdz-45" value="" style="curved=1;startArrow=none;;exitX=0.53;exitY=0.96;entryX=0.51;entryY=-0.04;rounded=0;hachureGap=4;fontFamily=Times New Roman;swimlaneLine=1;shadow=0;fontSize=16;" edge="1" parent="nBdhhwAt10GolD-cnCdz-15" source="nBdhhwAt10GolD-cnCdz-36" target="nBdhhwAt10GolD-cnCdz-37">
          <mxGeometry relative="1" as="geometry">
            <Array as="points" />
          </mxGeometry>
        </mxCell>
        <mxCell id="nBdhhwAt10GolD-cnCdz-46" value="" style="curved=1;startArrow=none;;exitX=0.05;exitY=0.96;entryX=0.5;entryY=0;rounded=0;hachureGap=4;fontFamily=Times New Roman;swimlaneLine=1;shadow=0;fontSize=16;" edge="1" parent="nBdhhwAt10GolD-cnCdz-15" source="nBdhhwAt10GolD-cnCdz-37" target="nBdhhwAt10GolD-cnCdz-38">
          <mxGeometry relative="1" as="geometry">
            <Array as="points">
              <mxPoint x="247" y="186" />
            </Array>
          </mxGeometry>
        </mxCell>
        <mxCell id="nBdhhwAt10GolD-cnCdz-47" value="" style="curved=1;startArrow=none;;exitX=0.96;exitY=0.96;entryX=0.5;entryY=0;rounded=0;hachureGap=4;fontFamily=Times New Roman;swimlaneLine=1;shadow=0;fontSize=16;" edge="1" parent="nBdhhwAt10GolD-cnCdz-15" source="nBdhhwAt10GolD-cnCdz-37" target="nBdhhwAt10GolD-cnCdz-41">
          <mxGeometry relative="1" as="geometry">
            <Array as="points">
              <mxPoint x="678" y="186" />
            </Array>
          </mxGeometry>
        </mxCell>
        <mxCell id="nBdhhwAt10GolD-cnCdz-48" value="" style="curved=1;startArrow=none;;exitX=0.5;exitY=0.99;entryX=0.05;entryY=0.02;rounded=0;hachureGap=4;fontFamily=Times New Roman;swimlaneLine=1;shadow=0;fontSize=16;" edge="1" parent="nBdhhwAt10GolD-cnCdz-15" source="nBdhhwAt10GolD-cnCdz-38" target="nBdhhwAt10GolD-cnCdz-44">
          <mxGeometry relative="1" as="geometry">
            <Array as="points">
              <mxPoint x="247" y="397" />
            </Array>
          </mxGeometry>
        </mxCell>
        <mxCell id="nBdhhwAt10GolD-cnCdz-49" value="" style="curved=1;startArrow=none;;exitX=0.5;exitY=0.99;entryX=0.96;entryY=0.02;rounded=0;hachureGap=4;fontFamily=Times New Roman;swimlaneLine=1;shadow=0;fontSize=16;" edge="1" parent="nBdhhwAt10GolD-cnCdz-15" source="nBdhhwAt10GolD-cnCdz-41" target="nBdhhwAt10GolD-cnCdz-44">
          <mxGeometry relative="1" as="geometry">
            <Array as="points">
              <mxPoint x="678" y="397" />
            </Array>
          </mxGeometry>
        </mxCell>
        <mxCell id="nBdhhwAt10GolD-cnCdz-50" value="" style="curved=1;startArrow=none;;exitX=0.51;exitY=1.02;entryX=0.5;entryY=0;rounded=0;hachureGap=4;fontFamily=Times New Roman;swimlaneLine=1;shadow=0;fontSize=16;" edge="1" parent="nBdhhwAt10GolD-cnCdz-15" source="nBdhhwAt10GolD-cnCdz-44" target="nBdhhwAt10GolD-cnCdz-16">
          <mxGeometry relative="1" as="geometry">
            <Array as="points" />
          </mxGeometry>
        </mxCell>
        <mxCell id="nBdhhwAt10GolD-cnCdz-51" value="Cleanup" style="swimlane;fontStyle=1;align=center;verticalAlign=middle;startSize=25;container=0;collapsible=0;rounded=1;arcSize=14;dropTarget=0;verticalAlign=top;hachureGap=4;fontFamily=Times New Roman;fontSize=16;swimlaneLine=1;shadow=0;" vertex="1" parent="1">
          <mxGeometry x="372" y="2630" width="205" height="398" as="geometry" />
        </mxCell>
        <mxCell id="nBdhhwAt10GolD-cnCdz-52" value="" style="ellipse;fillColor=strokeColor;hachureGap=4;fontFamily=Times New Roman;swimlaneLine=1;shadow=0;fontSize=16;" vertex="1" parent="nBdhhwAt10GolD-cnCdz-51">
          <mxGeometry x="103" y="46" width="14" height="14" as="geometry" />
        </mxCell>
        <mxCell id="nBdhhwAt10GolD-cnCdz-53" value="ResourceRelease" style="rounded=1;arcSize=40;strokeWidth=2;hachureGap=4;fontFamily=Times New Roman;swimlaneLine=1;shadow=0;fontSize=16;" vertex="1" parent="nBdhhwAt10GolD-cnCdz-51">
          <mxGeometry x="43" y="135" width="135" height="34" as="geometry" />
        </mxCell>
        <mxCell id="nBdhhwAt10GolD-cnCdz-54" value="ConnectionClose" style="rounded=1;arcSize=40;strokeWidth=2;hachureGap=4;fontFamily=Times New Roman;swimlaneLine=1;shadow=0;fontSize=16;" vertex="1" parent="nBdhhwAt10GolD-cnCdz-51">
          <mxGeometry x="43" y="244" width="135" height="34" as="geometry" />
        </mxCell>
        <mxCell id="nBdhhwAt10GolD-cnCdz-55" value="" style="ellipse;shape=endState;fillColor=strokeColor;hachureGap=4;fontFamily=Times New Roman;swimlaneLine=1;shadow=0;fontSize=16;" vertex="1" parent="nBdhhwAt10GolD-cnCdz-51">
          <mxGeometry x="103" y="353" width="14" height="14" as="geometry" />
        </mxCell>
        <mxCell id="nBdhhwAt10GolD-cnCdz-56" value="" style="curved=1;startArrow=none;;exitX=0.52;exitY=0.96;entryX=0.5;entryY=-0.01;rounded=0;hachureGap=4;fontFamily=Times New Roman;swimlaneLine=1;shadow=0;fontSize=16;" edge="1" parent="nBdhhwAt10GolD-cnCdz-51" source="nBdhhwAt10GolD-cnCdz-52" target="nBdhhwAt10GolD-cnCdz-53">
          <mxGeometry relative="1" as="geometry">
            <Array as="points" />
          </mxGeometry>
        </mxCell>
        <mxCell id="nBdhhwAt10GolD-cnCdz-57" value="" style="curved=1;startArrow=none;;exitX=0.5;exitY=1;entryX=0.5;entryY=0;rounded=0;hachureGap=4;fontFamily=Times New Roman;swimlaneLine=1;shadow=0;fontSize=16;" edge="1" parent="nBdhhwAt10GolD-cnCdz-51" source="nBdhhwAt10GolD-cnCdz-53" target="nBdhhwAt10GolD-cnCdz-54">
          <mxGeometry relative="1" as="geometry">
            <Array as="points" />
          </mxGeometry>
        </mxCell>
        <mxCell id="nBdhhwAt10GolD-cnCdz-58" value="" style="curved=1;startArrow=none;;exitX=0.5;exitY=1.01;entryX=0.52;entryY=0.02;rounded=0;hachureGap=4;fontFamily=Times New Roman;swimlaneLine=1;shadow=0;fontSize=16;" edge="1" parent="nBdhhwAt10GolD-cnCdz-51" source="nBdhhwAt10GolD-cnCdz-54" target="nBdhhwAt10GolD-cnCdz-55">
          <mxGeometry relative="1" as="geometry">
            <Array as="points" />
          </mxGeometry>
        </mxCell>
        <mxCell id="nBdhhwAt10GolD-cnCdz-59" value="" style="ellipse;shape=endState;fillColor=strokeColor;hachureGap=4;fontFamily=Times New Roman;fontSize=16;swimlaneLine=1;shadow=0;" vertex="1" parent="1">
          <mxGeometry x="468" y="3100" width="14" height="14" as="geometry" />
        </mxCell>
        <mxCell id="nBdhhwAt10GolD-cnCdz-60" value="System Start" style="curved=1;startArrow=none;;exitX=0.47;exitY=1;entryX=0.5;entryY=0;rounded=0;hachureGap=4;fontFamily=Times New Roman;fontSize=16;swimlaneLine=1;shadow=0;" edge="1" parent="1" source="nBdhhwAt10GolD-cnCdz-1" target="nBdhhwAt10GolD-cnCdz-2">
          <mxGeometry relative="1" as="geometry">
            <Array as="points" />
          </mxGeometry>
        </mxCell>
        <mxCell id="nBdhhwAt10GolD-cnCdz-61" value="Start Booking" style="curved=1;startArrow=none;;exitX=0.5;exitY=1;entryX=0.5;entryY=0;rounded=0;hachureGap=4;fontFamily=Times New Roman;fontSize=16;swimlaneLine=1;shadow=0;" edge="1" parent="1" source="nBdhhwAt10GolD-cnCdz-2" target="nBdhhwAt10GolD-cnCdz-15">
          <mxGeometry relative="1" as="geometry">
            <Array as="points" />
          </mxGeometry>
        </mxCell>
        <mxCell id="nBdhhwAt10GolD-cnCdz-62" value="Transaction Complete" style="curved=1;startArrow=none;;exitX=0.5;exitY=1;entryX=0.5;entryY=0;rounded=0;hachureGap=4;fontFamily=Times New Roman;fontSize=16;swimlaneLine=1;shadow=0;" edge="1" parent="1" source="nBdhhwAt10GolD-cnCdz-15" target="nBdhhwAt10GolD-cnCdz-51">
          <mxGeometry relative="1" as="geometry">
            <Array as="points" />
          </mxGeometry>
        </mxCell>
        <mxCell id="nBdhhwAt10GolD-cnCdz-63" value="System Shutdown" style="curved=1;startArrow=none;;exitX=0.5;exitY=1;entryX=0.47;entryY=0.03;rounded=0;hachureGap=4;fontFamily=Times New Roman;fontSize=16;swimlaneLine=1;shadow=0;" edge="1" parent="1" source="nBdhhwAt10GolD-cnCdz-51" target="nBdhhwAt10GolD-cnCdz-59">
          <mxGeometry relative="1" as="geometry">
            <Array as="points" />
          </mxGeometry>
        </mxCell>
      </root>
    </mxGraphModel>
  </diagram>
  <diagram id="814-EeQWG5-h8lOijEp2" name="Page-2">
    <mxGraphModel dx="863" dy="430" grid="1" gridSize="10" guides="1" tooltips="1" connect="1" arrows="1" fold="1" page="1" pageScale="1" pageWidth="850" pageHeight="1100" math="0" shadow="0">
      <root>
        <mxCell id="0" />
        <mxCell id="1" parent="0" />
      </root>
    </mxGraphModel>
  </diagram>
</mxfile>
